<svg width="95" height="95" viewBox="0 0 95 95" fill="none" xmlns="http://www.w3.org/2000/svg">
<path d="M42.5838 60.135C43.7765 61.3278 45.3335 61.8754 47.2546 61.7777C49.181 61.6775 50.602 60.9979 51.5177 59.7392L72.3188 30.7563L43.1815 51.4029C41.8726 52.2843 41.135 53.65 40.9688 55.4998C40.8051 57.3497 41.3448 58.8961 42.5877 60.139M20.1875 75.2084C19.4486 75.2084 18.7731 75.0223 18.1608 74.6502C17.5486 74.2755 17.0314 73.7662 16.6092 73.1223C15.0469 70.428 13.8674 67.5793 13.0704 64.5763C12.2735 61.5759 11.875 58.5227 11.875 55.4167C11.875 50.5004 12.8118 45.8745 14.6854 41.5388C16.559 37.2031 19.1016 33.4334 22.3131 30.2298C25.5194 27.0183 29.289 24.4757 33.6221 22.6021C37.9578 20.7285 42.5838 19.7917 47.5 19.7917C52.4031 19.7917 57.0013 20.7127 61.2948 22.5546C65.5883 24.3965 69.3513 26.9048 72.584 30.0794C75.8166 33.254 78.3737 36.9709 80.2552 41.23C82.1367 45.4918 83.0867 50.0729 83.1052 54.9734C83.1184 58.2456 82.7305 61.4254 81.9415 64.5129C81.1498 67.5925 79.9583 70.5639 78.3671 73.4271C77.9976 74.071 77.4936 74.5288 76.855 74.8006C76.219 75.0724 75.5303 75.2084 74.7887 75.2084H20.1875Z" fill="#1DAAFE"/>
</svg>
