<svg width="95" height="95" viewBox="0 0 95 95" fill="none" xmlns="http://www.w3.org/2000/svg">
<path d="M74 54C74 54.7956 73.6839 55.5587 73.1213 56.1213C72.5587 56.6839 71.7956 57 71 57H23C22.2044 57 21.4413 56.6839 20.8787 56.1213C20.3161 55.5587 20 54.7956 20 54C20 53.2044 20.3161 52.4413 20.8787 51.8787C21.4413 51.3161 22.2044 51 23 51H71C71.7956 51 72.5587 51.3161 73.1213 51.8787C73.6839 52.4413 74 53.2044 74 54ZM86 33H8C7.20435 33 6.44129 33.3161 5.87868 33.8787C5.31607 34.4413 5 35.2044 5 36C5 36.7956 5.31607 37.5587 5.87868 38.1213C6.44129 38.6839 7.20435 39 8 39H86C86.7956 39 87.5587 38.6839 88.1213 38.1213C88.6839 37.5587 89 36.7956 89 36C89 35.2044 88.6839 34.4413 88.1213 33.8787C87.5587 33.3161 86.7956 33 86 33ZM56 69H38C37.2044 69 36.4413 69.3161 35.8787 69.8787C35.3161 70.4413 35 71.2044 35 72C35 72.7956 35.3161 73.5587 35.8787 74.1213C36.4413 74.6839 37.2044 75 38 75H56C56.7956 75 57.5587 74.6839 58.1213 74.1213C58.6839 73.5587 59 72.7956 59 72C59 71.2044 58.6839 70.4413 58.1213 69.8787C57.5587 69.3161 56.7956 69 56 69Z" fill="#1DAAFE"/>
</svg>
