<svg width="95" height="95" viewBox="0 0 95 95" fill="none" xmlns="http://www.w3.org/2000/svg">
<path d="M47.411 13C45.1702 13.0451 43.561 13.4812 42.4932 14.2633L27.8602 22.0986L19.7241 33.1659C18.0096 35.8128 19.2278 40.926 24.5817 37.6475L30.4469 29.9174C37.8913 23.4973 53.0807 26.4434 45.877 39.3319C42.3428 46.7913 43.9971 50.4307 48.554 51.9647L50.6294 44.9866C54.2237 36.8956 60.9311 35.4368 60.6604 28.9098L76.7823 30.0678L76.6319 13.2105L47.411 13ZM39.2749 28.5489C36.6581 28.5038 34.0864 29.5866 32.2215 31.1506L26.3413 38.8807C27.9505 40.159 29.5747 39.4672 31.1839 37.9182C33.0788 38.8807 34.5526 37.3919 35.7557 34.4141C36.252 32.3838 36.9889 30.9551 39.2749 28.5489ZM27.3038 42.9864C27.2436 42.9864 27.1684 42.9864 27.1083 43.0014C26.612 43.1067 26.0255 43.6331 25.6344 44.8362C25.2284 46.0393 25.1382 47.7538 25.4991 49.5885C25.86 51.4083 26.612 52.9573 27.4542 53.9198C28.2663 54.8672 29.0182 55.1379 29.5145 55.0327C30.0258 54.9424 30.5973 54.401 30.9883 53.213C31.3944 52.0098 31.4997 50.2803 31.1387 48.4606C30.7628 46.6258 30.0108 45.0768 29.1837 44.1294C28.4618 43.2872 27.8001 42.9864 27.3038 42.9864ZM39.726 59.0481C38.538 59.0631 37.0491 59.4391 35.5903 60.146C33.921 60.9731 32.6126 62.1161 31.9057 63.1688C31.1989 64.2065 31.1387 64.9885 31.3643 65.4547C31.5899 65.9059 32.2516 66.3421 33.5149 66.4022C34.7782 66.4774 36.4776 66.1315 38.1469 65.3044C39.8163 64.4772 41.1247 63.3493 41.8315 62.2965C42.5383 61.2588 42.5985 60.4618 42.3729 60.0106C42.1473 59.5444 41.4856 59.1233 40.2223 59.0631C40.0569 59.0481 39.9065 59.0481 39.726 59.0481ZM25.0479 73.4255C24.3411 73.4405 23.6944 73.5458 23.1229 73.7112C21.8446 74.0872 21.1077 74.7639 20.8671 75.561C20.6114 76.3731 20.8671 77.3356 21.7243 78.3733C22.5966 79.396 24.0553 80.3735 25.86 80.9149C27.6497 81.4563 29.3942 81.4413 30.6876 81.0503C31.9809 80.6743 32.7178 79.9975 32.9585 79.2004C33.1991 78.3883 32.9585 77.4258 32.0862 76.3881C31.229 75.3655 29.7702 74.3879 27.9655 73.8465C26.9428 73.5458 25.9503 73.4104 25.0479 73.4255Z" fill="#1DAAFE"/>
</svg>
